<?xml version="1.0" encoding="UTF-8"?>
<svg xmlns="http://www.w3.org/2000/svg" xmlns:xlink="http://www.w3.org/1999/xlink" width="30pt" height="37pt" viewBox="0 0 30 37" version="1.1">
<g id="surface1">
<path style=" stroke:none;fill-rule:nonzero;fill:rgb(96.078431%,50.980392%,11.764706%);fill-opacity:1;" d="M 15 1.480469 C 9.699219 1.480469 5.398438 5.722656 5.398438 10.953125 C 5.398438 16.183594 15.292969 28.121094 15.292969 28.121094 C 15.292969 28.121094 24.601562 16.183594 24.601562 10.953125 C 24.601562 5.722656 20.300781 1.480469 15 1.480469 Z M 15 3.402344 C 19.226562 3.402344 22.652344 6.78125 22.652344 10.953125 C 22.652344 15.125 19.226562 18.503906 15 18.503906 C 10.773438 18.503906 7.347656 15.125 7.347656 10.953125 C 7.347656 6.78125 10.773438 3.402344 15 3.402344 Z M 15 3.402344 "/>
<path style=" stroke:none;fill-rule:nonzero;fill:rgb(0%,0%,0%);fill-opacity:1;" d="M 20.664062 8.679688 C 20.664062 8.679688 17.988281 12.9375 17.339844 13.289062 C 17.25 13.332031 17.175781 13.300781 16.683594 12.980469 C 15.605469 12.285156 12.828125 11.167969 12.171875 11.167969 C 11.5625 11.167969 11.21875 11.566406 10.972656 12.5625 C 10.800781 13.269531 10.855469 14.074219 11.117188 14.542969 C 11.417969 15.089844 11.910156 15.300781 13.089844 15.390625 C 13.300781 15.410156 13.664062 15.410156 14.050781 15.410156 C 14.046875 15.371094 14.042969 15.332031 14.042969 15.292969 C 14.042969 14.484375 14.707031 13.828125 15.527344 13.828125 C 16.257812 13.828125 16.875 14.347656 16.996094 15.054688 C 17.09375 15.019531 17.179688 14.988281 17.242188 14.953125 C 17.542969 14.796875 17.6875 14.625 17.730469 14.378906 C 17.773438 14.160156 17.816406 14.113281 18.09375 13.992188 C 18.3125 13.894531 18.339844 13.863281 18.832031 13.125 C 19.902344 11.523438 20.574219 10.164062 21.558594 8.679688 Z M 20.664062 8.679688 "/>
<path style=" stroke:none;fill-rule:nonzero;fill:rgb(0%,0%,0%);fill-opacity:1;" d="M 15.527344 13.710938 C 14.644531 13.710938 13.925781 14.421875 13.925781 15.292969 C 13.925781 16.164062 14.644531 16.875 15.527344 16.875 C 16.414062 16.875 17.132812 16.164062 17.132812 15.292969 C 17.132812 14.421875 16.414062 13.710938 15.527344 13.710938 Z M 15.527344 13.945312 C 16.285156 13.945312 16.894531 14.546875 16.894531 15.292969 C 16.894531 16.039062 16.285156 16.640625 15.527344 16.640625 C 14.773438 16.640625 14.164062 16.039062 14.164062 15.292969 C 14.164062 14.546875 14.773438 13.945312 15.527344 13.945312 Z M 15.527344 13.945312 "/>
<path style=" stroke:none;fill-rule:evenodd;fill:rgb(0%,0%,0%);fill-opacity:1;" d="M 16.132812 16.765625 L 15.8125 17.273438 L 15.65625 18.785156 L 15.417969 18.785156 L 15.296875 17.273438 L 14.941406 16.765625 Z M 16.132812 16.765625 "/>
</g>
</svg>
