<?xml version="1.0" encoding="UTF-8"?>
<svg xmlns="http://www.w3.org/2000/svg" xmlns:xlink="http://www.w3.org/1999/xlink" width="30pt" height="36pt" viewBox="0 0 30 36" version="1.1">
<g id="surface1">
<path style=" stroke:none;fill-rule:nonzero;fill:rgb(96.078431%,50.980392%,11.764706%);fill-opacity:1;" d="M 14.226562 1.894531 C 8.925781 1.894531 4.625 6.027344 4.625 11.121094 C 4.625 16.21875 14.519531 27.847656 14.519531 27.847656 C 14.519531 27.847656 23.828125 16.21875 23.828125 11.121094 C 23.828125 6.027344 19.527344 1.894531 14.226562 1.894531 Z M 14.226562 3.765625 C 18.453125 3.765625 21.878906 7.058594 21.878906 11.121094 C 21.878906 15.1875 18.453125 18.476562 14.226562 18.476562 C 10 18.476562 6.574219 15.1875 6.574219 11.121094 C 6.574219 7.058594 10 3.765625 14.226562 3.765625 Z M 14.226562 3.765625 "/>
<path style=" stroke:none;fill-rule:nonzero;fill:rgb(0%,0%,0%);fill-opacity:1;" d="M 16.195312 8.636719 C 16.195312 8.636719 15.683594 9.363281 14.433594 9.351562 C 13.183594 9.335938 12.566406 8.792969 11.328125 9.949219 C 11.328125 9.949219 10.90625 10 10.257812 9.792969 C 9.617188 9.585938 9.40625 9.578125 8.867188 9.839844 C 8.867188 9.839844 9.253906 9.953125 9.34375 10.050781 C 9.34375 10.050781 8.8125 10.15625 8.300781 10.101562 C 8.300781 10.101562 8.714844 10.394531 8.960938 10.421875 C 8.960938 10.421875 8.753906 10.59375 8.550781 10.5625 C 8.273438 10.527344 8.066406 10.660156 7.933594 10.785156 C 7.933594 10.785156 8.273438 10.753906 8.433594 10.917969 C 8.433594 10.917969 8.195312 11.195312 7.933594 11.351562 C 7.933594 11.351562 8.375 11.46875 8.855469 11.351562 C 8.855469 11.351562 8.828125 11.550781 8.699219 11.648438 C 8.699219 11.648438 9.414062 11.355469 9.667969 10.96875 C 9.667969 10.96875 9.769531 11.242188 9.710938 11.359375 C 9.710938 11.359375 10 11.019531 10.179688 10.785156 C 10.359375 10.546875 10.695312 10.136719 11.140625 10.496094 C 11.140625 10.496094 11.148438 11.453125 11.714844 11.785156 C 11.714844 11.785156 11.726562 12.402344 11.15625 12.496094 C 10.582031 12.59375 11.003906 12.789062 10.589844 13.558594 C 10.179688 14.324219 10.109375 13.964844 9.816406 13.910156 C 9.816406 13.910156 9.609375 14.125 9.617188 14.621094 C 9.617188 14.621094 10.191406 14.703125 10.582031 14.289062 C 10.582031 14.289062 11.078125 13.59375 11.257812 13.367188 C 11.441406 13.144531 11.964844 12.65625 12.253906 12.628906 C 12.253906 12.628906 12.773438 12.964844 12.828125 13.460938 C 12.882812 13.960938 13.058594 14.367188 13.753906 15.019531 C 13.753906 15.019531 13.753906 15.320312 13.988281 15.402344 C 13.988281 15.402344 13.910156 15.621094 14.078125 15.800781 C 14.078125 15.800781 14.675781 15.875 14.890625 15.695312 C 14.890625 15.695312 14.796875 15.394531 14.410156 15.207031 C 14.410156 15.207031 13.875 14.652344 13.726562 14.304688 C 13.578125 13.953125 13.667969 13.78125 13.410156 13.476562 C 13.140625 13.179688 13.695312 12.664062 13.691406 11.992188 C 13.691406 11.992188 15 12.59375 16.179688 12.320312 C 16.179688 12.320312 16.136719 12.664062 16.3125 12.957031 C 16.425781 13.132812 16.515625 13.558594 16.183594 13.683594 C 15.777344 13.832031 15.519531 13.96875 15.527344 13.796875 C 15.527344 13.796875 15.550781 13.5625 15.238281 13.644531 C 15.238281 13.644531 14.910156 13.730469 14.808594 13.902344 C 14.808594 13.902344 14.886719 14.140625 15.339844 14.335938 C 15.785156 14.523438 16.742188 13.949219 16.945312 13.511719 C 17.148438 13.078125 17.167969 12.746094 17.167969 12.527344 C 17.167969 12.527344 17.59375 13.242188 17.886719 13.414062 C 17.886719 13.414062 17.941406 13.816406 18.222656 13.964844 C 18.222656 13.964844 18.660156 14.773438 18.957031 14.960938 C 18.957031 14.960938 18.886719 15.207031 18.925781 15.371094 C 18.925781 15.371094 19.394531 15.492188 19.738281 15.265625 C 19.738281 15.265625 19.488281 14.890625 19.226562 14.757812 C 19.226562 14.757812 18.976562 14.503906 18.882812 14.277344 C 18.785156 14.058594 18.492188 13.21875 18.21875 12.933594 C 17.941406 12.644531 18.269531 12.191406 17.941406 11.65625 C 17.941406 11.65625 18.488281 11.09375 18.0625 9.582031 C 17.644531 8.066406 18.398438 8.132812 18.574219 8.304688 C 18.75 8.472656 18.765625 8.679688 19.210938 8.898438 C 19.210938 8.898438 19.300781 9.128906 19.492188 9.085938 C 19.796875 9.007812 20.226562 8.746094 19.652344 8.214844 C 19.085938 7.691406 19.617188 7.476562 19 6.789062 C 19 6.789062 18.894531 6.398438 18.988281 6.175781 C 18.988281 6.175781 18.695312 6.332031 18.601562 6.5 C 18.601562 6.5 18.46875 6.179688 18.53125 6.015625 C 18.53125 6.015625 18.191406 6.273438 18.144531 6.59375 C 18.144531 6.59375 17.898438 6.351562 17.417969 6.351562 C 16.941406 6.351562 16.929688 6.601562 16.503906 6.550781 C 16.503906 6.550781 16.691406 6.777344 17.21875 6.8125 C 17.21875 6.8125 16.738281 6.859375 16.449219 7.066406 C 16.164062 7.269531 15.824219 7.164062 15.824219 7.164062 C 15.824219 7.164062 16.085938 7.527344 16.640625 7.480469 C 16.640625 7.480469 16.195312 7.539062 15.875 7.734375 C 15.550781 7.933594 15.265625 7.890625 15.265625 7.890625 C 15.265625 7.890625 15.765625 8.160156 16.265625 8.03125 C 16.265625 8.03125 15.726562 8.191406 15.566406 8.378906 C 15.414062 8.574219 15.238281 8.753906 15.066406 8.769531 C 15.066406 8.769531 15.898438 8.835938 16.195312 8.636719 Z M 16.195312 8.636719 "/>
</g>
</svg>
