<?xml version="1.0" encoding="UTF-8"?>
<svg xmlns="http://www.w3.org/2000/svg" xmlns:xlink="http://www.w3.org/1999/xlink" width="15pt" height="15pt" viewBox="0 0 15 15" version="1.1">
<g id="surface1">
<path style=" stroke:none;fill-rule:nonzero;fill:#8a8a8a;fill-opacity:1;" d="M 7.5 0 C 3.359375 0 0 3.355469 0 7.496094 C 0 11.640625 3.359375 15 7.5 15 C 11.644531 15 15 11.640625 15 7.496094 C 15 3.355469 11.644531 0 7.5 0 Z M 7.5 2.964844 C 7.929688 2.964844 8.273438 3.3125 8.273438 3.742188 C 8.273438 4.167969 7.929688 4.515625 7.5 4.515625 C 7.070312 4.515625 6.726562 4.167969 6.726562 3.742188 C 6.726562 3.3125 7.070312 2.964844 7.5 2.964844 Z M 8.277344 10.90625 C 8.277344 11.375 7.929688 11.753906 7.5 11.753906 C 7.074219 11.753906 6.726562 11.375 6.726562 10.90625 L 6.726562 6.160156 C 6.726562 5.691406 7.074219 5.3125 7.5 5.3125 C 7.929688 5.3125 8.277344 5.691406 8.277344 6.160156 Z M 8.277344 10.90625 "/>
</g>
</svg>
