<?xml version="1.0" encoding="UTF-8"?>
<svg xmlns="http://www.w3.org/2000/svg" xmlns:xlink="http://www.w3.org/1999/xlink" width="20pt" height="17pt" viewBox="0 0 20 17" version="1.1">
<g id="surface1">
<path style=" stroke:none;fill-rule:nonzero;fill:rgb(96.078431%,50.980392%,11.764706%);fill-opacity:1;" d="M 5.289062 10.6875 C 4.921875 11 4.457031 11.195312 3.941406 11.195312 C 2.769531 11.195312 1.820312 10.21875 1.820312 9.011719 C 1.820312 7.980469 2.515625 7.121094 3.449219 6.890625 C 3.398438 6.558594 3.371094 6.21875 3.371094 5.875 C 3.371094 5.691406 3.382812 5.511719 3.398438 5.332031 C 1.660156 5.601562 0.324219 7.144531 0.324219 9.011719 C 0.324219 10.503906 1.179688 11.789062 2.410156 12.382812 L 3.941406 15.976562 L 5.476562 12.378906 C 5.84375 12.203125 6.171875 11.957031 6.457031 11.671875 C 6.03125 11.386719 5.636719 11.054688 5.289062 10.6875 Z M 5.289062 10.6875 "/>
<path style=" stroke:none;fill-rule:nonzero;fill:rgb(96.078431%,50.980392%,11.764706%);fill-opacity:1;" d="M 16.730469 5.339844 C 16.742188 5.515625 16.753906 5.695312 16.753906 5.875 C 16.753906 6.222656 16.726562 6.566406 16.675781 6.910156 C 17.578125 7.160156 18.246094 8 18.246094 9.011719 C 18.246094 10.21875 17.296875 11.195312 16.125 11.195312 C 15.628906 11.195312 15.175781 11.011719 14.8125 10.714844 C 14.460938 11.085938 14.0625 11.410156 13.632812 11.695312 C 13.914062 11.972656 14.234375 12.207031 14.59375 12.382812 L 16.125 15.976562 L 17.664062 12.378906 C 18.890625 11.785156 19.742188 10.503906 19.742188 9.011719 C 19.742188 7.164062 18.4375 5.636719 16.730469 5.339844 Z M 16.730469 5.339844 "/>
<path style=" stroke:none;fill-rule:nonzero;fill:rgb(96.078431%,50.980392%,11.764706%);fill-opacity:1;" d="M 15.488281 5.34375 C 15.230469 2.496094 12.898438 0.257812 10.0625 0.257812 C 7.226562 0.257812 4.894531 2.5 4.636719 5.355469 C 4.621094 5.527344 4.613281 5.699219 4.613281 5.875 C 4.613281 6.25 4.652344 6.621094 4.722656 6.984375 C 4.914062 7.949219 5.355469 8.84375 5.980469 9.578125 C 6.328125 9.984375 6.734375 10.34375 7.191406 10.636719 C 7.351562 10.738281 7.511719 10.835938 7.683594 10.921875 L 10.0625 16.503906 L 12.449219 10.917969 C 12.601562 10.839844 12.75 10.753906 12.894531 10.664062 C 13.347656 10.378906 13.753906 10.03125 14.101562 9.628906 C 14.757812 8.882812 15.214844 7.960938 15.410156 6.960938 C 15.476562 6.605469 15.515625 6.242188 15.515625 5.875 C 15.515625 5.695312 15.503906 5.519531 15.488281 5.34375 Z M 10.0625 8.828125 C 8.480469 8.828125 7.195312 7.503906 7.195312 5.875 C 7.195312 4.242188 8.480469 2.917969 10.0625 2.917969 C 11.644531 2.917969 12.933594 4.242188 12.933594 5.875 C 12.933594 7.503906 11.644531 8.828125 10.0625 8.828125 Z M 10.0625 8.828125 "/>
<path style=" stroke:none;fill-rule:nonzero;fill:rgb(0%,0%,0%);fill-opacity:1;" d="M 10.03125 4.480469 C 11.203125 4.480469 12.128906 5.78125 12.128906 5.78125 C 12.128906 5.78125 11.203125 7.078125 10.03125 7.078125 C 9.132812 7.078125 7.933594 5.78125 7.933594 5.78125 C 7.933594 5.78125 9.132812 4.480469 10.03125 4.480469 Z M 10.03125 6.589844 C 10.441406 6.589844 10.777344 6.226562 10.777344 5.78125 C 10.777344 5.332031 10.441406 4.96875 10.03125 4.96875 C 9.617188 4.96875 9.285156 5.332031 9.285156 5.78125 C 9.285156 6.226562 9.617188 6.589844 10.03125 6.589844 Z M 10.03125 5.308594 C 10.269531 5.308594 10.464844 5.519531 10.464844 5.78125 C 10.464844 6.039062 10.269531 6.253906 10.03125 6.253906 C 9.789062 6.253906 9.59375 6.039062 9.59375 5.78125 C 9.59375 5.519531 9.789062 5.308594 10.03125 5.308594 Z M 10.03125 5.308594 "/>
</g>
</svg>
