<svg xmlns="http://www.w3.org/2000/svg" width="188.63525390625" height="805.9403686523438" viewBox="546.1823732910168 -0.8164139570388329 188.63525390625 805.9403686523438" preserveAspectRatio="none">
  <g>
    <defs>
      <path id="s-Path_1-d1224" d="M638.365619896497 0.1835860429611671 C638.365619896497 297.3095888026548 638.3656198964968 289.3320266010565 638.3656198964968 289.3320266010565 L638.3656198964968 317.71605232758446 L629.6306267080284 322.8364128095836 C629.6306267080284 322.8364128095836 624.9912301130307 324.40506499648853 620.773596844851 317.71605232758446 C616.5559635766713 311.0270396586803 630.0523900348466 308.9182230245905 625.4129934398487 304.70058975641075 C620.773596844851 300.4829564882309 624.9912301130307 297.95237652732305 616.9777269034893 299.217666507777 C608.9642236939477 300.4829564882309 606.43364373304 302.1700097955029 600.5289571575883 304.70058975641075 C594.6242705821367 307.2311697173185 585.7672407189591 314.40114627322396 587.0325306994132 329.16286271185317 C588.2978206798672 343.92457915048226 595.0460339089547 364.59098216456294 595.0460339089547 374.2915386813763 C595.0460339089547 383.9920951981897 596.3113238894085 401.70615492454465 590.8284006407749 411.8284747681761 C585.3454773921413 421.95079461180734 588.2978206798671 435.4472210699826 582.8148974312334 440.5083809917982 C577.3319741825998 445.5695409136138 584.0801874116873 458.2224407181531 577.3319741825998 467.92299723496643 C570.5837609535122 477.6235537517799 574.379630894874 489.4329269026831 563.4137843976066 496.1811401317707 C552.4479379003393 502.9293533608583 551.1826479198853 488.1676369222293 553.7132278807932 499.55524674631454 C556.2438078417009 510.9428565703998 556.6655711685191 501.2423000535864 557.930861148973 511.78638322403583 C559.1961511294269 522.3304663944853 551.1826479198853 518.5345964531232 551.1826479198853 525.2828096822109 C551.1826479198853 532.0310229112986 553.7132278807933 526.9698629894826 551.1826479198854 535.8268928526604 C548.6520679589776 544.6839227158378 544.8561980176158 541.309816101294 549.0738312857956 546.7927393499276 C553.2914645539753 552.2756625985612 557.9308611489732 554.3844792326511 563.4137843976067 550.1668459644713 C568.8967076462403 545.9492126962916 565.9443643585145 540.466289447658 572.270814260784 538.779236140386 C578.5972641630538 537.0921828331141 584.0801874116873 540.8880527744759 580.2843174703256 544.2621593890196 C576.4884475289639 547.6362660035634 573.11434091442 547.2145026767457 568.4749443194223 552.6974259253793 C563.8355477244246 558.1803491740129 560.8832044366991 566.6156157103724 563.4137843976068 568.3026690176443 C565.9443643585146 569.9897223249161 565.5226010316967 574.2073555930958 572.2708142607842 568.3026690176443 C579.0190274898716 562.3979824421926 579.4407908166899 559.4456391544668 582.8148974312335 562.3979824421926 C586.1890040457772 565.3503257299185 592.515453948047 564.0850357494646 590.828400640775 568.3026690176443 C589.1413473335031 572.5203022858241 596.7330872162269 578.4249888612756 590.828400640775 586.016728743999 C584.9237140653233 593.6084686267227 581.54960745078 596.5608119144485 582.8148974312336 602.0437351630821 C584.0801874116873 607.5266584117157 587.8760573530493 607.1048950848981 587.0325306994133 614.2748716408037 C586.1890040457772 621.4448481967092 581.1278441239621 624.3971914844351 582.8148974312337 629.4583514062506 C584.5019507385053 634.5195113280661 589.9848739871393 637.4718546157919 587.0325306994133 642.9547778644258 C584.0801874116873 648.4377011130596 581.5496074507796 647.1724111326055 580.2843174703256 653.0770977080572 C579.0190274898716 658.9817842835087 582.3931341044157 660.2470742639628 577.3319741825999 664.0429442053246 C572.270814260784 667.8388141466864 571.8490509339664 666.5735241662323 572.2708142607843 671.21292076123 C572.692577587602 675.8523173562278 573.5361042412383 673.3217373953198 580.2843174703257 671.21292076123 C587.0325306994132 669.1041041271401 586.1890040457773 664.8864708589604 595.0460339089548 664.0429442053246 C603.9030637721321 663.1994175516884 604.3248270989501 664.0429442053246 606.43364373304 666.5735241662323 C608.5424603671298 669.1041041271401 612.7600936353098 664.8864708589604 616.9777269034894 666.5735241662323 C621.195360171669 668.2605774735041 624.991230113031 667.4170508198681 629.6306267080286 671.21292076123 C634.2700233030262 675.0087907025918 638.9094198980239 674.5870273757739 644.3923431466575 671.21292076123 C649.8752663952912 667.8388141466864 653.2493730098349 664.8864708589604 659.9975862389225 661.9341275712345 C666.7457994680101 658.9817842835087 668.432852775282 664.4647075321427 668.8546161021 659.8253109371449 C669.276379428918 655.1859143421468 666.7457994680101 654.7641510153289 665.0587461607382 648.4377011130596 C663.3716928534664 642.11125121079 668.8546161021002 640.0024345767001 665.0587461607383 636.2065646353383 C661.2628762193765 632.4106946939764 657.8887696048329 635.3630379817023 659.9975862389226 629.4583514062506 C662.1064028730124 623.5536648307989 664.6369828339205 615.5401616212575 668.8546161021001 614.2748716408037 C673.0722493702797 613.0095816603496 676.4463559848235 607.9484217385339 676.4463559848235 604.996078450808 C676.4463559848235 602.0437351630824 676.4463559848234 601.2002085094464 681.0857525798211 598.6696285485384 C685.725149174819 596.1390485876307 689.5210191161807 599.9349185289927 692.4733624039065 591.9214153194512 C695.4257056916323 583.9079121099096 697.1127589989044 588.1255453780893 692.4733624039065 583.4861487830915 C687.8339658089087 578.8467521880939 691.2080724234526 589.3908353585432 687.4122024820908 583.4861487830915 C683.6163325407291 577.58146220764 680.6639892530035 578.8467521880939 676.4463559848236 573.3638289394601 C672.2287227166437 567.8809056908265 671.8069593898263 565.7720890567368 676.4463559848238 557.7585858471953 C681.0857525798211 549.7450826376537 672.2287227166438 554.3844792326508 673.9157760239157 546.7927393499276 C675.6028293311875 539.2009994672044 685.7251491748192 543.4186327353834 687.412202482091 538.779236140386 C689.0992557893627 534.1398395453887 694.1604157111788 531.60925958448 692.4733624039067 525.2828096822109 C690.7863090966346 518.9563597799415 686.1469125016368 522.7522297213034 684.459859194365 519.3781231067596 C682.7728058870931 516.0040164922157 674.3375393507338 511.7863832240363 676.4463559848236 507.5687499558564 C678.5551726189134 503.3511166876765 672.6504860434618 503.772880014494 671.8069593898258 496.1811401317707 C670.9634327361898 488.58940024904734 667.5893261216464 493.65056017086295 665.0587461607383 486.4805836149574 C662.5281661998304 479.310607059052 659.5758229121049 478.04531707859803 671.8069593898259 477.6235537517801 C684.038095867547 477.20179042496204 683.1945692139114 482.6847136735958 687.412202482091 477.6235537517801 C691.6298357502706 472.5623938299643 689.9427824429987 467.5012339081488 695.4257056916323 463.28360063996905 C700.908628940266 459.0659673717892 698.7998123061762 460.33125735224314 695.4257056916324 453.1612807963375 C692.0515990770886 445.991304240432 684.4598591943655 444.3042509331598 687.4122024820911 440.5083809917982 C690.3645457698166 436.7125110504366 700.4868656134479 434.1819310895287 700.4868656134479 429.542534494531 C700.4868656134479 424.9031378995333 694.1604157111788 421.52903128498957 695.4257056916325 418.5766879972637 C696.6909956720862 415.624344709538 703.0174455743557 411.8284747681763 700.4868656134479 405.5020248659065 C697.9562856525401 399.17557496363696 699.6433389598126 392.0055984077313 695.4257056916326 388.2097284663696 C691.2080724234526 384.4138585250079 687.4122024820914 382.30504189091806 692.4733624039068 381.46151523728213 C697.5345223257222 380.6179885836461 703.0174455743559 381.0397519104636 707.2350788425356 374.2915386813763 C711.4527121107153 367.5433254522889 706.3915521888996 365.43450881819905 713.1397654179872 363.74745551092724 C719.8879786470748 362.0604022036552 724.1056119152545 352.3598456868418 726.2144285493443 347.72044909184416 C728.3232451834342 343.08105249684644 738.8673283538835 345.61163245775435 730.8538251443421 338.4416559018487 C722.8403219348006 331.27167934594314 724.5273752420724 328.74109938503494 718.2009253398028 329.16286271185317 C711.8744754375333 329.58462603867133 711.4527121107154 331.69344267276114 713.1397654179873 324.94522944367355 C714.826818725259 318.197016214586 721.1532686275291 316.50996290731416 713.1397654179874 313.1358562927703 C705.1262622084457 309.7617496782265 708.9221321498073 308.49645969777254 700.4868656134479 309.3399863514085 C692.0515990770886 310.1835130050445 686.5686758284551 307.65293304413666 681.0857525798212 313.1358562927703 C675.6028293311875 318.61877954140397 669.6981427557365 327.8975727313991 665.0587461607386 322.8364128095836 C660.4193495657405 317.77525288776803 655.7799529707429 319.3439050746726 650.7187930489272 317.71605232758446 C645.6576331271115 316.08819958049617 638.3656198964968 314.4056298079868 638.3656198964968 326.2680472559695 C638.3656198964968 338.1304647039522 638.3656198964969 595.8957533092002 638.3656198964969 595.8957533092002 L638.3656198964969 807.123962411127 "></path>
    </defs>
    <g>
      <use xmlns:xlink="http://www.w3.org/1999/xlink" xlink:href="#s-Path_1-d1224" fill="none" stroke-width="1.0" stroke="#404040" stroke-linecap="square" filter="none"></use>
    </g>
  </g>
</svg>