<?xml version="1.0" encoding="UTF-8"?>
<svg xmlns="http://www.w3.org/2000/svg" xmlns:xlink="http://www.w3.org/1999/xlink" width="18pt" height="24pt" viewBox="0 0 18 24" version="1.1">
<g id="surface1">
<path style=" stroke:none;fill-rule:nonzero;fill:rgb(96.078431%,50.980392%,11.764706%);fill-opacity:1;" d="M 15.429688 2.980469 C 11.898438 -0.9375 6.191406 -0.90625 2.660156 3.015625 C -0.871094 6.933594 -0.867188 12.925781 2.636719 16.796875 L 9.015625 23.835938 L 15.414062 16.738281 C 18.945312 13.222656 18.964844 6.902344 15.429688 2.980469 Z M 11.109375 15.539062 L 11.109375 12.921875 L 11.523438 12.921875 C 11.691406 10.78125 11.773438 9.367188 11.765625 8.910156 C 11.761719 7.5 11.5 6.484375 11 5.914062 C 10.796875 5.675781 10.464844 5.503906 10.253906 5.449219 L 10.253906 15.878906 C 9.824219 16.003906 9.378906 16.070312 8.910156 16.070312 C 8.628906 16.070312 8.539062 16.046875 8.109375 16 L 8.109375 11.109375 C 8.109375 10.882812 8.339844 10.617188 8.691406 10.316406 C 9.042969 10.011719 9.261719 9.625 9.261719 9.152344 C 9.261719 7.867188 9.449219 6.238281 8.539062 5.449219 L 8.539062 8.640625 L 8.109375 8.640625 L 8.109375 5.550781 L 7.464844 5.550781 L 7.464844 8.640625 L 7.039062 8.640625 L 7.039062 5.449219 C 6.101562 6.230469 6.285156 7.867188 6.285156 9.152344 C 6.285156 9.625 6.417969 10.011719 6.769531 10.316406 C 7.121094 10.617188 7.253906 10.882812 7.253906 11.109375 L 7.253906 15.773438 C 5.109375 14.988281 3.546875 12.714844 3.546875 10.035156 C 3.546875 6.699219 6.011719 3.996094 9.015625 3.996094 C 12.019531 3.996094 14.390625 6.699219 14.390625 10.035156 C 14.390625 12.488281 13.039062 14.597656 11.109375 15.539062 Z M 11.109375 15.539062 "/>
</g>
</svg>
