<?xml version="1.0" ?><svg viewBox="0 0 29.61 44.33" xmlns="http://www.w3.org/2000/svg" width="20" height="30"><defs><style>.cls-1{fill:#f7931e;}.cls-2{fill:none;stroke:#f7931e;stroke-miterlimit:10;stroke-width:2px;}</style></defs><title/><g data-name="Layer 2" id="Layer_2"><g data-name="Layer 1" id="Layer_1-2"><path class="cls-1" d="M14.8,44.33a1,1,0,0,1-.83-.45C13.4,43,0,22.64,0,14.8a14.8,14.8,0,0,1,29.61,0c0,7.84-13.4,28.22-14,29.08A1,1,0,0,1,14.8,44.33ZM14.8,2A12.82,12.82,0,0,0,2,14.8c0,6.18,9.84,22,12.8,26.69,3-4.64,12.8-20.51,12.8-26.69A12.82,12.82,0,0,0,14.8,2Z"/><circle class="cls-2" cx="14.8" cy="16.97" r="5.21"/></g></g></svg>