<?xml version="1.0" encoding="UTF-8"?>
<svg xmlns="http://www.w3.org/2000/svg" xmlns:xlink="http://www.w3.org/1999/xlink" width="25pt" height="39pt" viewBox="0 0 25 39" version="1.1">
<g id="surface1">
<path style="fill-rule:nonzero;fill:rgb(100%,100%,100%);fill-opacity:1;stroke-width:1.5;stroke-linecap:butt;stroke-linejoin:miter;stroke:rgb(100%,100%,100%);stroke-opacity:1;stroke-miterlimit:4;" d="M 416.481562 219.996995 C 416.481562 107.632212 325.3575 16.496394 213 16.496394 C 100.6425 16.496394 9.518437 107.632212 9.518437 219.996995 C 9.518437 332.361779 100.6425 423.497596 213 423.497596 C 325.3575 423.497596 416.481562 332.361779 416.481562 219.996995 Z M 416.481562 219.996995 " transform="matrix(0.0586854,0,0,0.0577778,0,0)"/>
<path style="fill-rule:nonzero;fill:rgb(0%,0%,0%);fill-opacity:1;stroke-width:1.5;stroke-linecap:butt;stroke-linejoin:miter;stroke:rgb(0%,0%,0%);stroke-opacity:1;stroke-miterlimit:4;" d="M 399.508125 218.982873 C 399.508125 116.55649 316.438125 33.533654 213.998437 33.533654 C 111.55875 33.533654 28.48875 116.55649 28.48875 218.982873 C 28.48875 321.476863 111.55875 404.4997 213.998437 404.4997 C 316.438125 404.4997 399.508125 321.476863 399.508125 218.982873 Z M 399.508125 218.982873 " transform="matrix(0.0586854,0,0,0.0577778,0,0)"/>
<path style="fill-rule:nonzero;fill:rgb(100%,40%,0%);fill-opacity:1;stroke-width:1.5;stroke-linecap:butt;stroke-linejoin:miter;stroke:rgb(100%,40%,0%);stroke-opacity:1;stroke-miterlimit:4;" d="M 120.012187 198.429988 L 305.987812 198.429988 L 305.987812 342.435397 L 120.012187 342.435397 Z M 120.012187 198.429988 " transform="matrix(0.0586854,0,0,0.0577778,0,0)"/>
<path style="fill-rule:nonzero;fill:rgb(100%,40%,0%);fill-opacity:1;stroke-width:1.5;stroke-linecap:butt;stroke-linejoin:miter;stroke:rgb(100%,40%,0%);stroke-opacity:1;stroke-miterlimit:4;" d="M 123.049619 306.079277 L 123.060965 122.036762 L 307.092134 306.067931 Z M 123.049619 306.079277 " transform="matrix(-0.0414969,0.0408551,-0.0414969,-0.0408551,30.428603,12.32925)"/>
<path style=" stroke:none;fill-rule:nonzero;fill:rgb(0%,0%,0%);fill-opacity:1;" d="M 12.554688 38.289062 C 12.277344 38.285156 12.015625 38.140625 11.863281 37.902344 C 11.390625 37.148438 0.246094 19.707031 0.246094 12.988281 C 0.246094 5.984375 5.757812 0.304688 12.558594 0.304688 C 19.359375 0.304688 24.871094 5.984375 24.871094 12.988281 C 24.871094 19.707031 13.726562 37.164062 13.226562 37.902344 C 13.078125 38.136719 12.828125 38.28125 12.554688 38.289062 Z M 12.554688 2.023438 C 6.679688 2.03125 1.917969 6.9375 1.910156 12.988281 C 1.910156 18.285156 10.09375 31.835938 12.554688 35.855469 C 15.050781 31.878906 23.199219 18.285156 23.199219 12.988281 C 23.191406 6.9375 18.429688 2.03125 12.554688 2.023438 Z M 12.554688 2.023438 "/>
</g>
</svg>
