<?xml version="1.0" encoding="iso-8859-1"?>
<!-- Uploaded to: SVG Repo, www.svgrepo.com, Generator: SVG Repo Mixer Tools -->
<!DOCTYPE svg PUBLIC "-//W3C//DTD SVG 1.1//EN" "http://www.w3.org/Graphics/SVG/1.1/DTD/svg11.dtd">
<svg version="1.1" id="Capa_1" xmlns="http://www.w3.org/2000/svg" xmlns:xlink="http://www.w3.org/1999/xlink" 
	 viewBox="0 0 297 297" xml:space="preserve">
<g>
	<g>
		<g>
			<rect x="16.5" y="148.5" style="fill:#F5DB91;" width="264" height="66"/>
		</g>
	</g>
	<path style="fill:#C3A99A;" d="M272.25,77.827V57.423H24.75v20.404h21.214v124.846H24.75v20.404h247.5v-20.404h-21.214V77.827
		H272.25z M137.893,77.827h21.214v124.846h-21.214V77.827z M121.393,202.673h-21.214V77.827h21.214V202.673z M175.607,77.827h21.214
		v124.846h-21.214V77.827z M62.464,77.827h21.214v124.846H62.464V77.827z M234.536,202.673h-21.214V77.827h21.214V202.673z"/>
	<g>
		<g>
			<path style="fill:#998272;" d="M22.417,264H10.583C4.738,264,0,259.262,0,253.417V43.583C0,37.738,4.738,33,10.583,33h11.833
				C28.262,33,33,37.738,33,43.583v209.833C33,259.262,28.262,264,22.417,264z"/>
		</g>
	</g>
	<g style="opacity:0.6;">
		<path style="fill:#BDC3C7;" d="M22.417,33H10.583c-0.803,0-1.582,0.097-2.333,0.267c4.721,1.064,8.25,5.275,8.25,10.317v209.833
			c0,5.042-3.529,9.253-8.25,10.317C9.002,263.903,9.781,264,10.583,264h11.833C28.262,264,33,259.262,33,253.417V43.583
			C33,37.738,28.262,33,22.417,33z"/>
	</g>
	<g>
		<g>
			<path style="fill:#998272;" d="M286.417,264h-11.833c-5.845,0-10.583-4.738-10.583-10.583V43.583
				C264,37.738,268.738,33,274.583,33h11.833C292.262,33,297,37.738,297,43.583v209.833C297,259.262,292.262,264,286.417,264z"/>
		</g>
	</g>
	<g style="opacity:0.6;">
		<path style="fill:#BDC3C7;" d="M286.417,33h-11.833c-0.803,0-1.582,0.097-2.333,0.267c4.721,1.064,8.25,5.275,8.25,10.317v209.833
			c0,5.042-3.529,9.253-8.25,10.317c0.752,0.169,1.531,0.267,2.333,0.267h11.833c5.845,0,10.583-4.738,10.583-10.583V43.583
			C297,37.738,292.262,33,286.417,33z"/>
	</g>
</g>
</svg>