<svg width="84" height="32" viewBox="0 0 84 32" fill="none" xmlns="http://www.w3.org/2000/svg">
            <title>SUPERHOG logo</title>
                <path d="M5.83189 12.3371L5.86145 4.81442C5.86145 4.07014 5.77475 3.55772 5.5915 3.27521C5.5128 3.14276 5.3987 3.03431 5.26174 2.96179C5.12479 2.88926 4.97026 2.85546 4.81515 2.8641H4.6319C4.46852 2.86512 4.30857 2.91055 4.16956 2.99543C4.03055 3.08031 3.91782 3.20137 3.84373 3.34535C3.6585 3.65709 3.56589 4.19484 3.56392 4.9547L3.55407 8.64101C3.55407 10.075 3.85161 11.2791 4.45653 12.226C5.05621 13.1646 5.72606 14.0575 6.46046 14.8972C7.18019 15.7218 7.8456 16.5913 8.45257 17.5002C9.05552 18.4043 9.35305 19.5441 9.34517 20.9333C9.34517 22.7355 9.33138 23.6357 9.32153 25.4379C9.34199 26.7385 8.86482 27.9988 7.98557 28.9664C7.58988 29.402 7.13024 29.7764 6.62204 30.077C6.13056 30.3758 5.60025 30.6072 5.04569 30.7647L4.36786 30.9596C3.85666 31.111 3.32512 31.1846 2.79151 31.1778C2.30118 31.1714 1.82127 31.037 1.40039 30.7881C0.961321 30.5202 0.610738 30.1316 0.391527 29.6697C0.109533 29.049 -0.0233262 28.3721 0.003352 27.6922V19.2031C1.28807 18.9596 1.93044 18.8427 3.2191 18.6186L3.20136 26.3225C3.20136 27.0862 3.3209 27.5902 3.55998 27.8344C3.66538 27.9503 3.80192 28.0341 3.95367 28.0762C4.10543 28.1183 4.26616 28.1169 4.41712 28.0721L4.59643 28.0253C4.95276 27.9198 5.25373 27.6816 5.43583 27.3609C5.66243 27.0024 5.77869 26.453 5.78066 25.7087L5.79445 22.0964C5.79445 20.6936 5.50283 19.546 4.89988 18.6361C4.29026 17.7197 3.625 16.8407 2.90777 16.0039C2.17071 15.1385 1.50332 14.2173 0.911722 13.2489C0.306799 12.2747 0.003352 11.0024 0.003352 9.48855V4.58451C-0.0145922 3.86617 0.119645 3.15206 0.397439 2.48807C0.625 1.9508 0.96788 1.46884 1.40236 1.0755C1.81087 0.716812 2.28696 0.441376 2.80334 0.264979C3.30492 0.0911294 3.83241 0.0015648 4.36392 7.26065e-07H4.82303C5.35918 -0.00028978 5.89174 0.0865975 6.39938 0.257185C6.90217 0.424256 7.36968 0.68115 7.77868 1.0151C8.2041 1.36418 8.54142 1.80646 8.7639 2.30687C9.02149 2.91226 9.14318 3.56571 9.12054 4.22211L9.06734 12C7.77671 12.1286 7.12844 12.1968 5.83189 12.3371Z" fill="#111827"></path>
                <path d="M15.0279 28.3742C14.5193 28.4772 13.9988 28.51 13.4811 28.4716C12.9923 28.4406 12.5187 28.2914 12.1018 28.0371C11.6838 27.7701 11.3441 27.3992 11.1166 26.9616C10.8413 26.3971 10.7126 25.7737 10.7422 25.1477C10.7934 16.8476 10.8434 8.54757 10.892 0.247525H14.4722C14.4171 8.1592 14.3599 16.0748 14.3008 23.9942C14.3008 24.6892 14.3895 25.1607 14.5668 25.4087C14.6515 25.5281 14.7711 25.6188 14.9096 25.6686C15.0481 25.7184 15.1988 25.725 15.3412 25.6874L15.5698 25.6464C15.7258 25.616 15.873 25.5513 16.0005 25.4572C16.1281 25.3632 16.2327 25.2421 16.3067 25.1029C16.4919 24.795 16.5885 24.3001 16.5924 23.6143C16.6489 15.8208 16.7047 8.02736 16.7599 0.233887H20.3421C20.2857 8.00787 20.2292 15.7812 20.1727 23.5539C20.1818 24.1844 20.0521 24.8094 19.7924 25.3854C19.5583 25.8998 19.2234 26.3634 18.8072 26.7492C18.3899 27.1309 17.9178 27.4493 17.4062 27.6942C16.8998 27.9417 16.3624 28.1218 15.8082 28.23L15.0279 28.3742Z" fill="#111827"></path>
                <path d="M26.953 0.224127C28.0493 0.193151 29.1238 0.530367 30.0013 1.18078C30.8407 1.81789 31.2584 2.71999 31.2525 3.8968L31.2111 12.2748C31.2111 13.4029 30.8013 14.2232 29.9993 14.7395C29.1973 15.2558 28.1964 15.5558 26.9964 15.6338C26.2949 15.6805 25.9442 15.7039 25.2447 15.7546L25.1737 26.5096C23.7314 26.6869 23.0062 26.7843 21.5737 26.9986C21.6368 18.0751 21.7025 9.15155 21.7708 0.228023L26.953 0.224127ZM27.6171 4.39363C27.6171 3.25189 27.2742 2.68492 26.5708 2.69271L25.3294 2.7083C25.3071 6.24264 25.2841 9.77762 25.2604 13.3133C25.8141 13.2782 26.09 13.2626 26.6397 13.2314C27.2525 13.1964 27.5639 12.6352 27.5698 11.5422L27.6171 4.39363Z" fill="#111827"></path>
                <path d="M36.2219 2.61673C36.214 5.69125 36.2054 8.76707 36.1963 11.8442C37.4514 11.8189 38.08 11.8111 39.3352 11.7994C39.3352 12.6528 39.3352 13.0814 39.3352 13.9426C38.078 13.9562 37.4494 13.966 36.1825 13.9952C36.1746 17.071 36.166 20.1468 36.1568 23.2227C37.8829 23.1584 38.748 23.1369 40.4741 23.1213V25.5081C37.8245 25.5354 35.1769 25.6393 32.5312 25.8198C32.568 17.2899 32.6048 8.75928 32.6416 0.228027H40.2179C40.2179 1.18468 40.2179 1.66203 40.2179 2.61673C38.6258 2.60698 37.8219 2.60893 36.2219 2.61673Z" fill="#111827"></path>
                <path d="M51.1029 10.5388C51.1029 11.3181 50.9531 11.8929 50.6536 12.2631C50.3677 12.6221 49.9668 12.8743 49.5167 12.9781C49.9737 13.0892 50.3776 13.3536 50.6595 13.7263C50.9643 14.116 51.1187 14.7005 51.1226 15.4798L51.1462 21.2256C51.1462 22.0556 51.1758 22.7511 51.2251 23.3162C51.2743 23.8812 51.3295 24.341 51.3925 24.6995C51.4389 24.9701 51.5047 25.237 51.5896 25.4983C51.6273 25.615 51.6748 25.7284 51.7315 25.8373C50.2812 25.736 49.5541 25.6932 48.1019 25.6289C47.8878 25.3288 47.7413 24.8203 47.6625 24.1033C47.5837 23.3863 47.543 22.3738 47.5404 21.0658C47.5404 18.8856 47.5404 17.7964 47.5266 15.6104C47.5266 14.5212 47.2133 13.9679 46.5985 13.9562L45.2192 13.9348L45.2369 25.5237C43.7867 25.4886 43.0694 25.4808 41.6113 25.4847C41.6113 17.0599 41.6113 8.63456 41.6113 0.208514H46.764C47.8584 0.181671 48.9301 0.520035 49.8063 1.16906C50.6457 1.80423 51.0681 2.70827 51.0733 3.88119L51.1029 10.5388ZM46.5847 11.8598C47.1995 11.8701 47.5062 11.3428 47.5049 10.2777C47.497 8.28125 47.4931 6.28417 47.4931 4.28645C47.4931 3.17198 47.139 2.61345 46.431 2.61085H45.1896L45.2034 11.8461L46.5847 11.8598Z" fill="#111827"></path>
                <path d="M62.1688 0.229947C62.2345 9.15607 62.3002 18.0815 62.3659 27.0064C60.9275 26.7921 60.1984 26.6946 58.7659 26.5173C58.7383 22.5063 58.7114 18.4946 58.6851 14.4823C57.8024 14.4219 57.359 14.3946 56.4743 14.342L56.5452 26.264C55.1009 26.1121 54.3778 26.0439 52.9315 25.9289L52.8132 0.220205H56.3935C56.4185 4.20657 56.4428 8.19228 56.4664 12.1773C57.3511 12.2222 57.7925 12.2455 58.6772 12.2962C58.6523 8.26956 58.626 4.24294 58.5984 0.216309L62.1688 0.229947Z" fill="#111827"></path>
                <path d="M68.1075 28.226C67.5665 28.117 67.042 27.9396 66.5469 27.698C66.0338 27.4518 65.5599 27.1328 65.14 26.7511C64.7209 26.3651 64.3822 25.9018 64.143 25.3872C63.8838 24.8104 63.7534 24.185 63.7607 23.5538L63.6189 3.89674C63.5952 3.28707 63.7167 2.68043 63.9735 2.12567C64.2009 1.65556 64.5387 1.24606 64.9588 0.93132C65.3773 0.616818 65.8499 0.379841 66.3538 0.231856C66.857 0.079277 67.3802 0.0011459 67.9065 0L68.7321 0C69.2624 0.00113031 69.7894 0.0826086 70.2947 0.241598C70.8051 0.397019 71.2816 0.645488 71.6996 0.974184C72.1236 1.32068 72.4608 1.75946 72.6849 2.25621C72.9486 2.85625 73.0776 3.50567 73.0632 4.15977C73.1039 11.1557 73.1459 18.1529 73.1893 25.1515C73.2171 25.7764 73.0963 26.399 72.8366 26.9693C72.6234 27.4088 72.2851 27.7771 71.8632 28.0292C71.4408 28.271 70.97 28.4187 70.4839 28.4618C69.9646 28.5137 69.4405 28.4874 68.9292 28.3838L68.1075 28.226ZM68.2455 2.6264C67.5466 2.61341 67.1972 3.22585 67.1972 4.46371C67.2445 10.8505 67.2904 17.2366 67.3351 23.622C67.3351 24.3078 67.4356 24.8027 67.6208 25.1106C67.7016 25.2555 67.8144 25.3806 67.9509 25.4764C68.0874 25.5722 68.244 25.6363 68.409 25.6639L68.5922 25.6951C68.7349 25.7328 68.8859 25.7264 69.0248 25.6765C69.1636 25.6267 69.2836 25.5359 69.3686 25.4165C69.5499 25.171 69.6366 24.6995 69.6326 24.0019C69.5867 17.5139 69.542 11.0252 69.4986 4.5358C69.4908 3.27845 69.1348 2.64264 68.4307 2.62835L68.2455 2.6264Z" fill="#111827"></path>
                <path d="M79.1674 18.3147C81.059 18.6283 82.0009 18.7959 83.8827 19.1525V32C83.2029 31.7818 82.862 31.6766 82.1782 31.4681C82.0167 31.0083 81.9359 30.7803 81.7723 30.3225C80.8442 30.907 79.9595 31.0726 79.1181 30.8349L78.8462 30.7589C78.3052 30.6038 77.7881 30.3763 77.3093 30.0828C76.7984 29.7771 76.334 29.4012 75.93 28.9664C75.5124 28.517 75.1788 27.9978 74.9448 27.433C74.6897 26.7964 74.5625 26.1168 74.5704 25.432C74.5336 18.3556 74.4949 11.2804 74.4541 4.20653C74.4313 3.55136 74.553 2.89913 74.8108 2.29518C75.034 1.79628 75.3712 1.35542 75.796 1.00731C76.2103 0.67148 76.684 0.4145 77.193 0.249391C77.6928 0.0861936 78.2155 0.00202743 78.7418 0H79.5674C80.0989 0.00156407 80.6264 0.0911287 81.128 0.264978C81.6445 0.441047 82.1207 0.71652 82.529 1.0755C82.9616 1.46622 83.2986 1.94931 83.5142 2.48807C83.7746 3.15624 83.8992 3.86866 83.8807 4.58451V13.0735C82.4639 12.8924 81.7526 12.8047 80.3339 12.6391C80.3339 10.0646 80.3273 7.49018 80.3142 4.91573C80.3142 4.15457 80.2209 3.62526 80.0344 3.32781C79.9569 3.18824 79.8428 3.07189 79.7041 2.99098C79.5654 2.91007 79.4073 2.86759 79.2462 2.868H79.063C78.9055 2.8603 78.749 2.89683 78.6116 2.97338C78.4742 3.04992 78.3616 3.16334 78.2866 3.30054C78.1034 3.59669 78.0147 4.1169 78.0167 4.85923L78.0975 25.7068C78.0975 26.453 78.192 26.9966 78.3753 27.3434C78.4482 27.5003 78.5549 27.6395 78.688 27.7513C78.8211 27.863 78.9774 27.9446 79.1457 27.9903L79.327 28.037C79.4658 28.0858 79.6172 28.0865 79.7564 28.039C79.8957 27.9916 80.0145 27.8989 80.0935 27.7759C80.2722 27.5162 80.3608 27.0057 80.3595 26.2445C80.3595 24.3137 80.3595 23.3473 80.3477 21.4165C79.8768 21.3229 79.6403 21.2762 79.1654 21.1866L79.1674 18.3147Z" fill="#111827"></path>
            </svg>