<svg class="db mb-xl" width="127" height="48" viewBox="0 0 127 48" fill="none" xmlns="http://www.w3.org/2000/svg">
<title>SUPERHOG LOGO</title>
<path d="M9.38202 7.22163L9.33768 18.5056C11.2825 18.2952 12.2549 18.1929 14.1909 18L14.2707 6.33317C14.3046 5.34856 14.1221 4.36839 13.7357 3.4603C13.402 2.70968 12.896 2.04626 12.2579 1.52265C11.6444 1.02173 10.9431 0.636385 10.1889 0.385779C9.42745 0.129897 8.62862 -0.000433587 7.82439 1.08367e-06H7.13572C6.33846 0.00234828 5.54723 0.136695 4.79485 0.397469C4.02028 0.662065 3.30615 1.07522 2.69338 1.61325C2.04166 2.20325 1.52734 2.92621 1.186 3.7321C0.769312 4.72809 0.567955 5.79925 0.594872 6.87677V14.2328C0.594872 16.5037 1.05004 18.4121 1.95743 19.8734C2.84483 21.326 3.84591 22.7077 4.9515 24.0058C6.02735 25.261 7.02524 26.5796 7.93966 27.9542C8.84409 29.319 9.28152 31.0404 9.28152 33.1447L9.26083 38.5631C9.25788 39.6795 9.0835 40.5036 8.7436 41.0414C8.47044 41.5224 8.01899 41.8798 7.48449 42.038L7.21553 42.1081C6.98908 42.1753 6.74799 42.1774 6.52035 42.1143C6.29272 42.0512 6.08792 41.9254 5.92982 41.7516C5.5712 41.3853 5.39189 40.6293 5.39189 39.4837L5.41849 27.9279C3.4855 28.264 2.52196 28.4394 0.594872 28.8047V41.5382C0.554854 42.5582 0.754143 43.5735 1.17713 44.5046C1.50595 45.1974 2.03182 45.7803 2.69043 46.1822C3.32174 46.5554 4.04161 46.7571 4.77711 46.7667C5.57752 46.7769 6.37483 46.6665 7.14163 46.4393L8.15838 46.1471C8.99021 45.9108 9.78568 45.5637 10.5229 45.1154C11.2852 44.6646 11.9747 44.103 12.5682 43.4496C13.8871 41.9982 14.6028 40.1078 14.5721 38.1568C14.5772 37.2311 14.5829 36.4641 14.5883 35.747C14.5987 34.3702 14.6076 33.1775 14.6076 31.3999C14.6194 29.3161 14.1731 27.6064 13.2687 26.2504C12.3582 24.8869 11.3601 23.5827 10.2805 22.3458C9.17893 21.0862 8.17416 19.7469 7.27464 18.339C6.36725 16.9187 5.92095 15.1125 5.92095 12.9615L5.93573 7.43205C5.93868 6.29226 6.0776 5.48563 6.35543 5.01802C6.46658 4.80205 6.63566 4.62047 6.84418 4.49315C7.0527 4.36583 7.29262 4.29768 7.53769 4.29615H7.81257C8.04524 4.2832 8.27702 4.3339 8.48246 4.44268C8.6879 4.55147 8.85904 4.71413 8.97709 4.91281C9.25197 5.33658 9.38202 6.10521 9.38202 7.22163Z" fill="white"></path>
<path d="M20.8117 42.7072C21.5882 42.7649 22.369 42.7157 23.1318 42.5611L24.3023 42.3448C25.1336 42.1826 25.9396 41.9124 26.6993 41.5411C27.4667 41.1738 28.1749 40.6962 28.8008 40.1237C29.4251 39.5449 29.9274 38.8496 30.2786 38.0779C30.6681 37.214 30.8628 36.2765 30.849 35.3307L31.1032 0.350704H25.7299C25.6471 12.0409 25.5634 23.7311 25.4786 35.4213C25.4727 36.4501 25.3279 37.1924 25.0501 37.6542C24.939 37.863 24.7821 38.0447 24.5908 38.1857C24.3995 38.3268 24.1788 38.4238 23.9446 38.4695L23.6018 38.5309C23.3882 38.5873 23.1622 38.5775 22.9545 38.5028C22.7467 38.428 22.5672 38.292 22.4402 38.113C22.1742 37.7409 22.0412 37.0336 22.0412 35.9912C22.1299 24.112 22.2156 12.2387 22.2983 0.371162H16.9279C16.855 12.8212 16.7802 25.2713 16.7033 37.7214C16.6589 38.6604 16.8519 39.5956 17.2649 40.4423C17.6061 41.0987 18.1157 41.655 18.7427 42.0555C19.368 42.437 20.0784 42.6608 20.8117 42.7072Z" fill="white"></path>
<path fill-rule="evenodd" clip-rule="evenodd" d="M41.019 0.336064C42.6634 0.2896 44.2751 0.795424 45.5914 1.77104C46.8505 2.72671 47.4771 4.07985 47.4683 5.84507L47.4062 18.412C47.4062 20.1042 46.7914 21.3346 45.5885 22.1091C44.3855 22.8836 42.884 23.3336 41.084 23.4505C40.0318 23.5207 39.5057 23.5557 38.4565 23.6317L38.3501 39.7642C36.1865 40.0302 35.0989 40.1763 32.9501 40.4978C33.0447 27.1125 33.1432 13.7272 33.2457 0.341909L41.019 0.336064ZM42.0151 6.59033C42.0151 4.87771 41.5008 4.02725 40.4456 4.03894L38.5836 4.06232C38.5501 9.36383 38.5156 14.6663 38.4801 19.9698C39.2983 19.9179 39.712 19.8945 40.5125 19.8491L40.5491 19.847C41.4683 19.7944 41.9353 18.9527 41.9441 17.3132L42.0151 6.59033Z" fill="white"></path>
<path d="M54.8842 17.7663C54.898 13.1506 54.9109 8.53687 54.9227 3.92508C57.3227 3.91339 58.5286 3.91047 60.9167 3.92508V0.342032H49.5523L49.3867 38.7298C53.3552 38.4589 57.3266 38.3031 61.301 38.2621V34.682C58.7118 34.7054 57.4143 34.7375 54.8251 34.834C54.8389 30.2203 54.8517 25.6065 54.8636 20.9928C56.764 20.9489 57.7069 20.9343 59.5926 20.9139V17.6991C57.7098 17.7166 56.767 17.7283 54.8842 17.7663Z" fill="white"></path>
<path fill-rule="evenodd" clip-rule="evenodd" d="M77.2445 15.8082C77.2445 16.9772 77.0199 17.8393 76.5706 18.3946C76.1418 18.9332 75.5403 19.3115 74.8652 19.4672C75.5508 19.6339 76.1566 20.0305 76.5795 20.5895C77.0366 21.174 77.2681 22.0507 77.2741 23.2198L77.3095 31.8384C77.3095 33.0834 77.3539 34.1267 77.4277 34.9743C77.5016 35.8218 77.5844 36.5115 77.679 37.0493C77.7485 37.4551 77.8473 37.8556 77.9745 38.2475C78.0312 38.4225 78.1023 38.5926 78.1873 38.7561C76.012 38.6041 74.9214 38.5398 72.743 38.4433C72.4219 37.9933 72.2022 37.2305 72.0839 36.155C71.9657 35.0795 71.9046 33.5607 71.9007 31.5987C71.9007 28.3284 71.9007 26.6947 71.88 23.4156C71.88 21.7819 71.4101 20.9519 70.4879 20.9343L68.4189 20.9022L68.4455 38.2855C66.2702 38.2329 65.1943 38.2212 63.0072 38.2271V0.312802H70.7362C72.3778 0.272539 73.9854 0.780084 75.2997 1.75362C76.5588 2.70637 77.1923 4.06244 77.2002 5.82181L77.2445 15.8082ZM70.4672 17.7897C71.3894 17.8053 71.8495 17.0142 71.8475 15.4166C71.8357 12.4219 71.8298 9.42629 71.8298 6.4297C71.8298 4.758 71.2987 3.92021 70.2367 3.91631H68.3746L68.3953 17.7692L70.4672 17.7897Z" fill="white"></path>
<path d="M94.1387 40.5096L93.8431 0.344927L88.4875 0.324469C88.5289 6.36441 88.5683 12.4044 88.6057 18.4443C87.2786 18.3683 86.6166 18.3332 85.2895 18.266C85.254 12.2884 85.2176 6.30986 85.1801 0.330314H79.8097L79.9871 38.8934C82.1565 39.0658 83.2412 39.1681 85.4077 39.3961L85.3013 21.513C86.6284 21.5919 87.2934 21.6328 88.6176 21.7234C88.657 27.7419 88.6974 33.7594 88.7387 39.776C90.8875 40.042 91.9811 40.1881 94.1387 40.5096Z" fill="white"></path>
<path fill-rule="evenodd" clip-rule="evenodd" d="M102.751 42.339C101.939 42.1756 101.153 41.9094 100.41 41.547C99.6404 41.1777 98.9294 40.6992 98.2997 40.1266C97.671 39.5477 97.1629 38.8527 96.8041 38.0809C96.4153 37.2155 96.2197 36.2775 96.2307 35.3307L96.0179 5.84511C95.9825 4.9306 96.1647 4.02064 96.5499 3.18851C96.891 2.48335 97.3977 1.86909 98.0277 1.39698C98.6555 0.925229 99.3645 0.569763 100.12 0.347785C100.875 0.118917 101.66 0.00171994 102.449 1.08367e-06H103.688C104.483 0.00169656 105.274 0.123914 106.032 0.362398C106.797 0.595529 107.512 0.968233 108.139 1.46128C108.775 1.98103 109.281 2.63919 109.617 3.38432C110.012 4.28438 110.206 5.25851 110.184 6.23965C110.245 16.7336 110.308 27.2294 110.374 37.7272C110.415 38.6645 110.234 39.5985 109.844 40.454C109.525 41.1132 109.017 41.6657 108.384 42.0438C107.751 42.4066 107.045 42.628 106.315 42.6926C105.537 42.7705 104.75 42.7311 103.983 42.5757L102.751 42.339ZM102.958 3.9396C101.91 3.92012 101.385 4.83877 101.385 6.69557C101.456 16.2757 101.525 25.8548 101.592 35.433C101.592 36.4618 101.743 37.2041 102.021 37.6659C102.142 37.8833 102.311 38.0709 102.516 38.2146C102.721 38.3583 102.956 38.4545 103.203 38.4959L103.478 38.5426C103.692 38.5993 103.918 38.5896 104.127 38.5148C104.335 38.4401 104.515 38.3039 104.643 38.1247C104.914 37.7565 105.044 37.0492 105.039 36.0029C104.97 26.2708 104.903 16.5378 104.838 6.8037C104.826 4.91768 104.292 3.96396 103.236 3.94252L102.958 3.9396Z" fill="white"></path>
<path d="M126.414 28.7287C123.591 28.1939 122.178 27.9425 119.341 27.472L119.338 31.7798C120.05 31.9143 120.405 31.9844 121.111 32.1247C121.129 35.0209 121.129 36.4705 121.129 39.3668C121.131 40.5085 120.998 41.2742 120.73 41.6639C120.612 41.8483 120.433 41.9874 120.225 42.0586C120.016 42.1297 119.789 42.1286 119.58 42.0555L119.309 41.9854C119.056 41.9169 118.822 41.7945 118.622 41.6269C118.422 41.4593 118.262 41.2504 118.153 41.0151C117.878 40.4949 117.736 39.6795 117.736 38.5602L117.615 7.28885C117.612 6.17535 117.745 5.39503 118.02 4.9508C118.132 4.74501 118.301 4.57488 118.507 4.46007C118.713 4.34525 118.948 4.29045 119.184 4.302H119.459C119.701 4.30138 119.938 4.36511 120.146 4.48647C120.354 4.60784 120.525 4.78237 120.642 4.99172C120.921 5.4379 121.061 6.23186 121.061 7.3736C121.081 11.2353 121.091 15.0969 121.091 18.9586C123.219 19.207 124.286 19.3385 126.411 19.6103V6.87677C126.439 5.80299 126.252 4.73437 125.861 3.7321C125.538 2.92397 125.032 2.19933 124.383 1.61325C123.771 1.07478 123.057 0.661572 122.282 0.397468C121.53 0.136694 120.738 0.00234719 119.941 1.08367e-06H118.703C117.913 0.00304223 117.129 0.129292 116.38 0.374088C115.616 0.621752 114.905 1.00722 114.284 1.51096C113.647 2.03313 113.141 2.69442 112.806 3.44277C112.419 4.3487 112.237 5.32704 112.271 6.30979C112.332 16.9206 112.39 27.5334 112.446 38.1481C112.434 39.1751 112.624 40.1946 113.007 41.1495C113.358 41.9967 113.858 42.7755 114.485 43.4496C115.091 44.1018 115.788 44.6657 116.554 45.1242C117.272 45.5644 118.048 45.9056 118.859 46.1383L119.267 46.2523C120.529 46.6089 121.856 46.3605 123.248 45.4837C123.494 46.1705 123.615 46.5124 123.857 47.2021C124.883 47.5149 125.394 47.6727 126.414 48V28.7287Z" fill="white"></path>
</svg>